<svg xmlns="http://www.w3.org/2000/svg" xmlns:xlink="http://www.w3.org/1999/xlink" width="100" height="100" viewBox="0 0 100 100"><rect width="100%" height="100%" fill="#FFFFFF"></rect><g transform="translate(50 50) scale(0.69 0.69) rotate(0) translate(-50 -50)" style="fill:#E60000"><svg fill="#E60000" xmlns="http://www.w3.org/2000/svg" xmlns:xlink="http://www.w3.org/1999/xlink" version="1.1" x="0px" y="0px" viewBox="0 0 100 100" enable-background="new 0 0 100 100" xml:space="preserve"><g><path d="M83.855,0.465H16.148c-8.65,0-15.686,7.036-15.686,15.684v67.703c0,8.645,7.036,15.684,15.686,15.684h67.705   c8.648,0,15.682-7.039,15.682-15.684l0.005-2.195V16.149C99.539,7.501,92.503,0.465,83.855,0.465z M47.196,25.329l1.42,1.421   l-6.404,6.406c-0.454-0.498-0.931-0.97-1.439-1.408L47.196,25.329z M28.828,20.349h2.013v7.329   c-0.574-0.034-1.153-0.05-1.732-0.021c-0.095,0.003-0.187,0.021-0.281,0.026V20.349z M13.553,26.676l5.117,5.117   c-0.506,0.44-0.983,0.912-1.434,1.41l-5.104-5.106L13.553,26.676z M5.831,43.372h7.12c-0.019,0.333-0.05,0.668-0.05,1.006   c0,0.338,0.031,0.674,0.05,1.007h-7.12V43.372z M13.291,62.08l-1.426-1.42l4.991-4.992l0.254-0.254   c0.445,0.504,0.92,0.979,1.423,1.424L13.291,62.08z M84.094,79.676c-1.279,0.609-2.694,0.982-4.204,0.982H39.772   c-3.099,0-8.334,0.498-12.959-1.283c-5.688-2.188-9.975-7.473-9.975-13.674c0-0.014,0.003-0.023,0.003-0.035   s-0.003-0.025-0.003-0.035c0-2.992,1.08-5.711,2.815-7.883c0.013,0.008,0.024,0.018,0.034,0.025   c0.058-0.07,0.115-0.139,0.173-0.209c2.889,2.184,6.338,3.42,9.982,3.418c0.257,0,0.514-0.006,0.771-0.018   c1.791-0.08,3.536-0.441,5.19-1.07l-0.718-1.883c-1.452,0.553-2.988,0.871-4.566,0.943c-3.932,0.195-7.657-1.182-10.548-3.82   c-2.889-2.643-4.577-6.25-4.755-10.161c-0.362-8.077,5.909-14.942,13.982-15.309c4.666-0.191,9.18,1.84,12.1,5.474l1.3-1.043   c0.016-0.01,0.032-0.021,0.047-0.031c0,0-0.003-0.002-0.005-0.005l0.168-0.131c0.005,0.01,0.013,0.018,0.021,0.026   c2.941-1.646,6.328-2.598,9.932-2.598c10.076,0,18.446,7.353,20.088,16.968c1.77-0.64,3.67-1.009,5.656-1.009   c9.193,0,16.672,7.479,16.672,16.672C95.177,71.217,90.543,77.369,84.094,79.676z"></path><path fill="#E60000" d="M42.808,33.927l-0.168,0.131c0.002,0.003,0.005,0.005,0.005,0.005c0.063-0.034,0.121-0.073,0.184-0.11   C42.82,33.945,42.812,33.938,42.808,33.927z"></path><path fill="none" d="M78.505,47.314c-1.986,0-3.887,0.37-5.656,1.009c-1.642-9.615-10.012-16.968-20.088-16.968   c-3.604,0-6.991,0.952-9.932,2.598c-0.063,0.037-0.121,0.076-0.184,0.11c-0.016,0.01-0.032,0.021-0.047,0.031l-1.3,1.043   c-2.92-3.633-7.434-5.665-12.1-5.474c-8.074,0.367-14.344,7.232-13.982,15.309c0.178,3.911,1.867,7.519,4.755,10.161   c2.891,2.639,6.616,4.016,10.548,3.82c1.578-0.072,3.114-0.391,4.566-0.943l0.718,1.883c-1.654,0.629-3.4,0.99-5.19,1.07   c-0.257,0.012-0.514,0.018-0.771,0.018c-3.644,0.002-7.094-1.234-9.982-3.418c-0.058,0.07-0.115,0.139-0.173,0.209   c-0.01-0.008-0.021-0.018-0.034-0.025c-1.735,2.172-2.815,4.891-2.815,7.883c0,0.01,0.003,0.023,0.003,0.035   s-0.003,0.021-0.003,0.035c0,6.201,4.288,11.486,9.975,13.674c4.625,1.781,9.861,1.283,12.959,1.283H79.89   c1.51,0,2.925-0.373,4.204-0.982c6.449-2.307,11.083-8.459,11.083-15.689C95.177,54.793,87.698,47.314,78.505,47.314z"></path><path fill="none" d="M30.841,27.678v-7.329h-2.013v7.334c0.094-0.005,0.186-0.023,0.281-0.026   C29.688,27.628,30.267,27.644,30.841,27.678z"></path><path fill="none" d="M18.67,31.793l-5.117-5.117l-1.421,1.421l5.104,5.106C17.687,32.706,18.164,32.234,18.67,31.793z"></path><path fill="none" d="M12.9,44.378c0-0.338,0.031-0.674,0.05-1.006h-7.12v2.013h7.12C12.932,45.052,12.9,44.717,12.9,44.378z"></path><path fill="none" d="M17.11,55.414l-0.254,0.254l-4.991,4.992l1.426,1.42l5.243-5.242C18.03,56.393,17.556,55.918,17.11,55.414z"></path><path fill="none" d="M48.616,26.75l-1.42-1.421l-6.422,6.419c0.508,0.438,0.985,0.91,1.439,1.408L48.616,26.75z"></path></g></svg></g></svg>